<svg xmlns="http://www.w3.org/2000/svg" viewBox="0 0 31.414 31.414" style="enable-background:new 0 0 31.414 31.414" xml:space="preserve"><path d="M31.414 13.414 30 12l-2.707 2.707h-9.172l8-8h3.586v-2h-3v-3h-2v3.586l-8 8V4.121l2.707-2.707L18 0l-2.293 2.293L13.414 0 12 1.414l2.707 2.707v9.172l-8-8V1.707h-2v3h-3v2h3.586l8 8H4.121L1.414 12 0 13.414l2.293 2.293L0 18l1.414 1.414 2.707-2.707h9.172l-8 8H1.707v2h3v3h2v-3.586l8-8v9.172L12 30l1.414 1.414 2.293-2.293L18 31.414 19.414 30l-2.707-2.707v-9.172l8 8v3.586h2v-3h3v-2h-3.586l-8-8h9.172L30 19.414 31.414 18l-2.293-2.293z"/></svg>