<svg xmlns="http://www.w3.org/2000/svg" viewBox="0 0 64 64" xml:space="preserve" style="fill-rule:evenodd;clip-rule:evenodd;stroke-linecap:round;stroke-linejoin:round;stroke-miterlimit:2"><path d="M26 41H16a8 8 0 0 1-8-8v-.05A8.004 8.004 0 0 1 16 25h.001a5.104 5.104 0 0 0 4.785-3.329c1.613-4.628 6.032-7.92 11.214-7.92s9.601 3.292 11.279 7.896a5.033 5.033 0 0 0 4.72 3.283L48 25a8 8 0 0 1 8 7.95V33a8 8 0 0 1-8 8H36.583" style="fill:none;stroke:#222a33;stroke-width:2px"/><path d="M31.117 34.846a.923.923 0 0 1 .919-.846h6.08a.922.922 0 0 1 .852 1.277l-3.122 7.493a.525.525 0 0 0 .486.73h.002a.699.699 0 0 1 .518 1.171l-5.14 5.654a.67.67 0 0 1-.805.144.671.671 0 0 1-.343-.742l1.222-5.376a.698.698 0 0 0-.68-.851s0 0 0 0a.652.652 0 0 1-.651-.707l.662-7.947zM11 49l-3 7M41 49l-3 7M18.5 49l-3 7M48.5 49l-3 7M26 49l-3 7M56 49l-3 7M22.75 38h-6.169a3.34 3.34 0 0 1-3.296-2.792L13.25 35" style="fill:none;stroke:#222a33;stroke-width:2px"/></svg>